Coordinates
version=1
nRows=16
nColumns=22
inDegrees=yes

Units are S.I. units (second, meters, Newtons, ...)
If the header above contains a line with 'inDegrees', this indicates whether rotational values are in degrees (yes) or radians (no).

endheader
time	pelvis_tilt	pelvis_list	pelvis_rotation	pelvis_tx	pelvis_ty	pelvis_tz	hip_flexion_r	hip_adduction_r	hip_rotation_r	knee_angle_r	ankle_angle_r	subtalar_angle_r	hip_flexion_l	hip_adduction_l	hip_rotation_l	knee_angle_l	ankle_angle_l	subtalar_angle_l	lumbar_extension	lumbar_bending	lumbar_rotation
      4.23000000	      1.06489744	      1.52294371	    183.07267712	     -0.12789408	      1.00452403	     -0.65499968	     17.95615321	     -9.93911739	     -7.54116325	    -58.25761251	      3.04563019	     10.80559849	      9.42436695	      7.24902813	    -14.53841274	    -14.66071891	      6.82033129	    -16.42505247	     -4.12319880	     -5.79132603	     -3.46584873
      4.24000000	      0.98305641	      1.55921008	    184.20089776	     -0.13741583	      1.00474336	     -0.65163902	     18.91254066	     -9.84729697	     -7.46356804	    -56.97532849	      3.80839553	     10.69562543	      8.45503337	      7.51504170	    -13.47443930	    -14.20856475	      7.11848470	    -16.40872324	     -4.28619770	     -5.62117885	     -3.87082994
      4.25000000	      0.92321444	      1.57490244	    185.31765076	     -0.14678871	      1.00479853	     -0.64829113	     19.85193575	     -9.76393223	     -7.35254118	    -55.55363780	      4.52045190	     10.61009268	      7.53286953	      7.76624657	    -12.42906411	    -13.80103818	      7.44320614	    -16.40235997	     -4.43321278	     -5.47662235	     -4.26480327
      4.26000000	      0.84132811	      1.58940718	    186.42713001	     -0.15607243	      1.00479445	     -0.64492577	     20.70694374	     -9.67221900	     -7.23533583	    -53.97243293	      5.08924497	     10.52523121	      6.58887042	      7.98657345	    -11.36331867	    -13.40026894	      7.76677639	    -16.39552984	     -4.60557939	     -5.32680971	     -4.63205851
      4.27000000	      0.72419438	      1.60005271	    187.51327810	     -0.16526419	      1.00475195	     -0.64159503	     21.46467442	     -9.56327678	     -7.10044381	    -52.24020680	      5.53825148	     10.42030545	      5.61753838	      8.16962646	    -10.30348695	    -13.02173801	      8.09166941	    -16.39374447	     -4.82032576	     -5.17676625	     -4.96429166
      4.28000000	      0.66722649	      1.58676809	    188.59657261	     -0.17433062	      1.00448330	     -0.63826649	     22.23587059	     -9.48887217	     -6.97026380	    -50.40384242	      5.94973675	     10.35562468	      4.74385784	      8.34989942	     -9.23692985	    -12.71464704	      8.44266446	    -16.41072347	     -4.97311819	     -5.06048358	     -5.30717262
      4.29000000	      0.57786284	      1.56893231	    189.65046367	     -0.18336736	      1.00417969	     -0.63499203	     22.90489955	     -9.39783778	     -6.83615591	    -48.43117134	      6.24075217	     10.29576141	      3.83783090	      8.49434087	     -8.17961735	    -12.42050893	      8.78861859	    -16.43502389	     -5.15851856	     -4.94859404	     -5.61572028
      4.30000000	      0.48238089	      1.53723041	    190.67978416	     -0.19238708	      1.00378505	     -0.63175517	     23.50164239	     -9.30873488	     -6.71208468	    -46.34583964	      6.44718170	     10.26072643	      2.93093793	      8.61692637	     -7.13231574	    -12.14908422	      9.14106791	    -16.46442945	     -5.34609053	     -4.85131356	     -5.90443992
      4.31000000	      0.37754816	      1.49226169	    191.67503454	     -0.20142488	      1.00330477	     -0.62857449	     24.02260430	     -9.21248354	     -6.59530075	    -44.15652454	      6.57201729	     10.26864856	      2.01550418	      8.71713832	     -6.10361663	    -11.89418653	      9.50133650	    -16.49278061	     -5.53658078	     -4.77198448	     -6.16426767
      4.32000000	      0.24135533	      1.43179169	    192.62532843	     -0.21050315	      1.00277369	     -0.62547189	     24.44378412	     -9.09485318	     -6.47151671	    -41.87016607	      6.63747995	     10.33813316	      1.06908555	      8.79076371	     -5.11600684	    -11.65722191	      9.87021929	    -16.51017514	     -5.75636442	     -4.70673876	     -6.37831353
      4.33000000	      0.16856294	      1.36392842	    193.56383373	     -0.21961503	      1.00203159	     -0.62236993	     24.87487774	     -8.99504906	     -6.40040098	    -39.52237907	      6.62049708	     10.49557356	      0.19429547	      8.85766495	     -4.13420117	    -11.44452738	     10.27688117	    -16.50724036	     -5.89187705	     -4.66586467	     -6.60769200
      4.34000000	      0.03233716	      1.28067953	    194.44016795	     -0.22878916	      1.00128711	     -0.61938799	     25.17609484	     -8.84524056	     -6.29465253	    -37.09621348	      6.60734596	     10.76739316	     -0.74242213	      8.89211804	     -3.20626377	    -11.25386943	     10.70022640	    -16.46502689	     -6.09727277	     -4.63488406	     -6.76997155
      4.35000000	     -0.04056683	      1.20342854	    195.29620242	     -0.23802976	      1.00033238	     -0.61644428	     25.49482383	     -8.68548164	     -6.22060430	    -34.63143447	      6.54069260	     11.11597868	     -1.60601415	      8.90837817	     -2.30949785	    -11.08237188	     11.17230542	    -16.40436887	     -6.21459873	     -4.62078070	     -6.95058837
      4.36000000	     -0.15871105	      1.10249397	    196.07508184	     -0.24735697	      0.99933874	     -0.61363997	     25.71350311	     -8.47587361	     -6.06888672	    -32.12224221	      6.54482525	     11.66364170	     -2.51318849	      8.90980618	     -1.48921678	    -10.93261882	     11.66636908	    -16.28203931	     -6.38458763	     -4.63301988	     -7.04843846
      4.37000000	     -0.22655293	      1.01636840	    196.82418468	     -0.25673500	      0.99814924	     -0.61088714	     25.94153907	     -8.23398417	     -5.89526388	    -29.58916286	      6.55356752	     12.29710677	     -3.33812846	      8.88763486	     -0.71342658	    -10.83628622	     12.19217898	    -16.16923507	     -6.48675809	     -4.64867466	     -7.14849791
      4.38000000	     -0.26790780	      0.95523779	    197.53091903	     -0.26619952	      0.99680710	     -0.60821521	     26.15457806	     -7.93578406	     -5.66423514	    -27.03464471	      6.56794459	     13.03067193	     -4.11230544	      8.82538718	     -0.02440406	    -10.76911651	     12.74287060	    -16.08035644	     -6.54243829	     -4.65314976	     -7.25361715
